<svg xmlns="http://www.w3.org/2000/svg" width="100%" height="100%" viewBox="-10 -10 148 48" fill="none" style="background-color:#0d1117;border-radius:8px;overflow:hidden"><g clip-path="url(#clip0)"><path fill-rule="evenodd" clip-rule="evenodd" d="M16.2978 38.0788H4.35387C4.35387 36.5978 4.91474 35.8849 6.48262 35.8849H14.2922C15.2441 35.8849 16.2978 36.0537 16.2978 36.7962V38.0788ZM111.772 33.4209C112.417 34.1429 113.99 35.979 115.558 37.813L115.762 38.0522C117.532 40.1229 119.243 42.129 119.548 42.4581C120.134 43.0909 121.078 43.1162 121.078 41.9012V32.3324H125.361V43.9769C125.361 46.3312 123.576 47.3437 122.454 47.7488C121.333 48.1538 119.191 47.8753 118.171 46.5337C117.152 45.192 110.498 37.2433 109.962 36.6611C109.427 36.0789 108.56 36.4586 108.56 37.1421C108.56 37.8256 108.611 47.3184 108.611 47.3184H104.379V35.446C104.379 33.2184 106.342 32.2058 107.642 32.0286C108.943 31.8514 110.37 31.8514 111.772 33.4209ZM56.918 32.3071C60.1473 32.3071 62.0848 34.9061 62.0848 37.2012V42.8716C62.0848 45.0993 59.9093 47.3606 57.394 47.3606H47.1964C43.7971 47.3606 41.4858 45.5381 41.4858 41.9603V36.9312C41.4858 34.7711 43.6273 32.3071 46.5845 32.3071H56.918ZM101.957 32.307V47.3437H97.5724V32.307H101.957ZM91.9637 32.1552C93.009 32.4843 95.023 33.4462 95.023 36.5092V47.3437H90.6635V37.9521C90.6635 37.3699 89.7712 37.1674 89.3633 37.8762C88.9554 38.585 84.1116 47.3184 84.1116 47.3184H80.0071C80.0071 47.3184 78.6353 44.8884 77.2574 42.4489L77.0984 42.1675C75.8809 40.012 74.6997 37.9218 74.5004 37.5724C74.067 36.813 73.3532 37.1927 73.3532 37.8003L73.3531 37.821L73.353 37.9118C73.3522 38.446 73.347 40.3838 73.3416 42.3606L73.3408 42.6366C73.3347 44.8441 73.3284 47.0211 73.3277 47.2696L73.3277 47.2931H69.0447V35.6992C69.0447 32.7121 72.3844 32.0286 73.2512 32.0286C73.3379 32.0286 73.4322 32.0261 73.5339 32.0256L73.5959 32.0256C74.5173 32.0302 76.0096 32.2645 77.9166 35.8511C80.0835 39.9267 81.9956 43.0403 81.9956 43.0403C81.9956 43.0403 85.7942 36.1295 87.2218 33.9272C88.6495 31.7248 90.9185 31.8261 91.9637 32.1552ZM142.901 32.3577C145.322 32.3577 147.413 34.8638 147.413 36.6105V43.2681C147.413 45.5464 144.583 47.3437 142.926 47.3437H128.165V38.1293H132.55V43.6732H140.581C142.493 43.6732 143.13 42.2809 143.13 41.3189V38.6356C143.13 36.8636 142.136 35.8257 140.479 35.8257L140.238 35.8256C138.029 35.8238 128.522 35.8014 128.127 35.8005L128.114 35.8004V32.3577H142.901ZM17.2836 32.4084C18.5753 32.4084 20.4108 34.1972 20.4108 35.4461V39.7664C20.4108 40.8127 19.493 41.5216 18.6772 41.5216H4.26465C4.26465 41.5216 4.285 41.7845 4.29419 42.0599L4.29624 42.1289C4.29772 42.1864 4.2986 42.2434 4.2986 42.2979C4.2986 42.6355 4.80848 43.7829 5.48835 43.7829H20.2068V47.3269H4.8765C2.22513 47.3269 0.015625 45.0318 0.015625 43.0404V36.3912C0.015625 34.1635 2.56502 32.4084 4.06069 32.4084H17.2836ZM39.2985 32.3746L39.3103 35.8848H29.9965C27.685 35.8848 26.6992 37.0661 26.6992 38.4837V41.2177C26.6992 42.5003 27.4131 43.6478 29.4526 43.6478H39.3783V47.3268H27.821C24.3539 47.3268 22.3483 45.5718 22.3483 41.994V37.1674C22.3483 34.4335 24.5918 32.3746 26.8353 32.3746H39.2985ZM54.9125 35.9861H48.828C47.2304 35.9861 45.8707 36.9312 45.8707 38.1463L45.8706 38.1501C45.8695 38.2084 45.8556 38.9249 45.8459 39.7169L45.8447 39.8206C45.84 40.2193 45.8367 40.6305 45.8367 40.9814C45.8367 42.0953 46.4826 43.4792 48.386 43.4792H55.4224C56.782 43.4792 57.8019 42.8041 57.8019 41.3865V38.5176C57.8019 36.9987 56.8161 35.9861 54.9125 35.9861ZM68.0505 40.6101V42.939H63.3086V40.6101H68.0505Z" fill="white"></path><path fill-rule="evenodd" clip-rule="evenodd" d="M0.015625 25.1927H21.5735V1.63281H0.015625V25.1927Z" fill="#D4E091"></path><path fill-rule="evenodd" clip-rule="evenodd" d="M50.9184 20.0627C50.9184 22.8812 48.6366 25.1662 45.8218 25.1662H33.4878C30.673 25.1662 28.3911 22.8812 28.3911 20.0627V6.41939C28.3911 3.60084 30.673 1.31592 33.4878 1.31592H45.8218C48.6366 1.31592 50.9184 3.60084 50.9184 6.41939V20.0627Z" fill="#B3CC3D"></path><path fill-rule="evenodd" clip-rule="evenodd" d="M80.0716 15.9119C80.0716 20.9854 75.9642 25.0982 70.8975 25.0982H66.1066C61.0399 25.0982 56.9326 20.9854 56.9326 15.9119V9.99191C56.9326 4.91845 61.0399 0.805664 66.1066 0.805664H70.8975C75.9642 0.805664 80.0716 4.91845 80.0716 9.99191V15.9119Z" fill="#97C000"></path><path fill-rule="evenodd" clip-rule="evenodd" d="M89.0927 17.4939C89.0927 17.4939 85.3721 21.8828 85.1682 24.0773L86.3405 24.9449C86.3405 24.9449 87.1559 21.1173 90.7236 19.9435C90.7236 19.9435 115.205 22.0699 116.02 0.0229492C116.02 0.0229492 112.554 3.15311 110.176 3.49331C107.807 3.83228 89.0543 0.660576 88.4364 17.3796L89.0927 17.4939Z" fill="#87BB00"></path></g><defs><clipPath id="clip0"><rect width="177.429" height="78" fill="white"></rect></clipPath></defs></svg>
